<?xml version="1.0" standalone="no"?><!DOCTYPE svg PUBLIC "-//W3C//DTD SVG 1.1//EN" "http://www.w3.org/Graphics/SVG/1.1/DTD/svg11.dtd"><svg t="1776318206445" class="icon" viewBox="0 0 1024 1024" version="1.1" xmlns="http://www.w3.org/2000/svg" p-id="5483" xmlns:xlink="http://www.w3.org/1999/xlink" width="200" height="200"><path d="M394.7 461.2c62.2 22.9 136.7-22.2 165.4-100.3l67-181.9c28.8-78.1-8.7-111.7-83.2-74.7L500.4 126c-74.5 37-154.3 118.2-177.2 180.5-22.9 62.1 9.2 131.8 71.5 154.7z m66.5 168.1c22.9-62.2-22.2-136.7-100.3-165.4l-181.9-67c-78.1-28.8-111.7 8.7-74.7 83.2l21.6 43.5c37 74.5 118.2 154.3 180.5 177.2 62.2 22.9 131.9-9.2 154.8-71.5z m458.4-85.4L898 500.4c-37-74.5-118.2-154.3-180.4-177.2-62.2-22.9-131.9 9.2-154.8 71.5-22.9 62.2 22.2 136.7 100.3 165.4l181.9 67c78.1 28.8 111.7-8.7 74.6-83.2z m-290.3 18.9c-62.2-22.9-136.7 22.2-165.4 100.3l-67 181.9c-28.8 78.1 8.7 111.7 83.2 74.7l43.5-21.6c74.5-37 154.3-118.2 177.2-180.5 22.9-62.2-9.2-131.9-71.5-154.8z" p-id="5484" fill="#1296db"></path></svg>